<?xml version="1.0" encoding="utf-8"?>
<!-- Generator: Adobe Illustrator 23.0.2, SVG Export Plug-In . SVG Version: 6.00 Build 0)  -->
<svg version="1.1" id="Слой_1" xmlns="http://www.w3.org/2000/svg" xmlns:xlink="http://www.w3.org/1999/xlink" x="0px" y="0px"
	 viewBox="0 0 24 24" style="enable-background:new 0 0 24 24;" xml:space="preserve">
<style type="text/css">
	.st0{fill:none;stroke:#005BB5;stroke-width:2;stroke-linecap:round;stroke-linejoin:round;}
	.st1{fill:none;stroke:#005BB5;stroke-linecap:round;stroke-linejoin:round;}
</style>
<path class="st0" d="M6,4h12c1.1,0,2,0.9,2,2v12c0,1.1-0.9,2-2,2H6c-1.1,0-2-0.9-2-2V6C4,4.9,4.9,4,6,4z"/>
<rect x="6" y="6" class="st1" width="6" height="3"/>
<line class="st1" x1="14" y1="6" x2="18" y2="6"/>
<line class="st1" x1="14" y1="8" x2="18" y2="8"/>
<line class="st0" x1="7" y1="11" x2="9" y2="11"/>
<line class="st0" x1="11" y1="11" x2="13" y2="11"/>
<line class="st0" x1="15" y1="11" x2="17" y2="11"/>
<line class="st0" x1="7" y1="14" x2="9" y2="14"/>
<line class="st0" x1="11" y1="14" x2="13" y2="14"/>
<line class="st0" x1="15" y1="14" x2="17" y2="14"/>
<line class="st0" x1="7" y1="17" x2="9" y2="17"/>
<line class="st0" x1="11" y1="17" x2="13" y2="17"/>
<line class="st0" x1="15" y1="17" x2="17" y2="17"/>
</svg>
